<svg width="20" height="25" viewBox="0 0 20 25" fill="none" xmlns="http://www.w3.org/2000/svg">
<path d="M9.99998 19.7917H11.6666V6.25L16.995 9.10417C17.145 9.18454 17.2728 9.31821 17.3626 9.48857C17.4523 9.65893 17.5001 9.8585 17.5 10.0625V19.7917H19.1666V21.875H0.833313V19.7917H2.49998V5.88542C2.49996 5.68387 2.54671 5.48665 2.63457 5.31766C2.72244 5.14866 2.84763 5.01516 2.99498 4.93333L9.41415 1.36667C9.47765 1.3314 9.5472 1.31655 9.61648 1.32346C9.68575 1.33037 9.75253 1.35883 9.81076 1.40625C9.86898 1.45367 9.91679 1.51853 9.94984 1.59494C9.98289 1.67136 10.0001 1.75689 9.99998 1.84375V19.7917Z" fill="#13ADB7"/>
</svg>
